<svg width="36" height="36" viewBox="0 0 36 36" fill="none" xmlns="http://www.w3.org/2000/svg">
<path d="M29.5385 18.9474C30.1662 18.9474 30.7754 19.0232 31.3846 19.1179V9.47368H1.84615V34.1053H19.1077C18.7015 32.9116 18.4615 31.6421 18.4615 30.3158C18.4615 24.0442 23.4277 18.9474 29.5385 18.9474ZM11.0769 18.9474V16.1053C11.0769 15.5747 11.4831 15.1579 12 15.1579H21.2308C21.7477 15.1579 22.1538 15.5747 22.1538 16.1053V18.9474H11.0769ZM33.2308 7.57895H0V0H33.2308V7.57895ZM36 27L27.2308 36L22.1538 30.3158L24.2954 28.1179L27.2308 31.1305L33.8585 24.3284L36 27Z" fill="black"/>
</svg>
