<svg width="36" height="36" viewBox="0 0 36 36" fill="none" xmlns="http://www.w3.org/2000/svg">
<path d="M30.8571 6.85714H0V0H30.8571V6.85714ZM24.8571 17.1429H22.2857V25.7143L28.4743 29.4171L29.76 27.3257L24.8571 24.4286V17.1429ZM36 24C36 30.6343 30.6343 36 24 36C19.92 36 16.3371 33.96 14.16 30.8571H1.71429V8.57143H29.1429V13.1657C33.1886 15.1029 36 19.2171 36 24ZM10.2857 17.1429H14.16C15.1371 15.7543 16.3886 14.5714 17.8457 13.7143H11.1429C10.6629 13.7143 10.2857 14.0914 10.2857 14.5714V17.1429ZM32.5714 24C32.5714 19.2686 28.7314 15.4286 24 15.4286C19.2686 15.4286 15.4286 19.2686 15.4286 24C15.4286 28.7314 19.2686 32.5714 24 32.5714C28.7314 32.5714 32.5714 28.7314 32.5714 24Z" fill="white"/>
</svg>
