<svg width="48" height="48" viewBox="0 0 48 48" fill="none" xmlns="http://www.w3.org/2000/svg">
<path opacity="0.5" d="M24 0.5V0V0.5ZM40.6172 7.38281L40.9707 7.02926L40.6172 7.38281ZM47.5 24H48H47.5ZM24 47.5V48V47.5ZM0.5 24H0H0.5ZM24 2.37988V1.87988V2.37988ZM2.37988 24H1.87988H2.37988ZM24 45.6201V46.1201H24.0006L24 45.6201ZM45.6201 24L46.1201 24.0006V24H45.6201ZM24 0.5V1C30.1 1 35.9503 3.42304 40.2636 7.73637L40.6172 7.38281L40.9707 7.02926C36.4699 2.52838 30.3652 2.98023e-08 24 0V0.5ZM40.6172 7.38281L40.2636 7.73637C44.577 12.0497 47 17.9 47 24H47.5H48C48 17.6348 45.4716 11.5301 40.9707 7.02926L40.6172 7.38281ZM47.5 24H47C47 36.7025 36.7025 47 24 47V47.5V48C37.2548 48 48 37.2548 48 24H47.5ZM24 47.5V47C11.2975 47 1 36.7025 1 24H0.5H0C2.98023e-08 37.2548 10.7452 48 24 48V47.5ZM0.5 24H1C1 11.2975 11.2975 1 24 1V0.5V0C10.7452 0 0 10.7452 0 24H0.5ZM24 2.37988V1.87988C11.7835 1.87988 1.87988 11.7835 1.87988 24H2.37988H2.87988C2.87988 12.3357 12.3357 2.87988 24 2.87988V2.37988ZM2.37988 24H1.87988C1.87988 36.2165 11.7835 46.1201 24 46.1201V45.6201V45.1201C12.3357 45.1201 2.87988 35.6643 2.87988 24H2.37988ZM24 45.6201L24.0006 46.1201C36.2111 46.1064 46.1064 36.2111 46.1201 24.0006L45.6201 24L45.1201 23.9994C45.1071 35.6586 35.6586 45.1071 23.9994 45.1201L24 45.6201ZM45.6201 24H46.1201C46.1201 11.7835 36.2165 1.87988 24 1.87988V2.37988V2.87988C35.6643 2.87988 45.1201 12.3357 45.1201 24H45.6201Z" fill="#191919"/>
<circle cx="24" cy="24" r="21.5" fill="white"/>
<line x1="2.5" y1="24" x2="45.5" y2="24" stroke="#191919"/>
<line x1="24" y1="45.5" x2="24" y2="2.5" stroke="#191919"/>
<path d="M5.5 12L14.5 14.5L24 16L34 14.5L42.5 12" stroke="#191919"/>
<path d="M42.5 35.5L33.5 33L24 31.5L14 33L5.5 35.5" stroke="#191919"/>
</svg>
