<svg width="19" height="19" viewBox="0 0 19 19" fill="none" xmlns="http://www.w3.org/2000/svg">
<g id="Group 2">
<path id="Vector" d="M10.0946 18.245V0.6348C10.0946 0.264519 9.78078 0 9.41046 0C9.09523 0 8.7814 0.290114 8.7814 0.6348V18.245C8.7814 18.5878 9.09523 18.8779 9.41046 18.8779C9.78078 18.8779 10.0946 18.6134 10.0946 18.245ZM0.634866 10.0955H18.245C18.5878 10.0955 18.8779 9.78168 18.8779 9.46647C18.8779 9.09817 18.6134 8.7824 18.245 8.7824H0.634866C0.264546 8.7824 0 9.09817 0 9.46647C0 9.78168 0.290144 10.0955 0.634866 10.0955Z" fill="black"/>
<path id="Ellipse 3" d="M19 9.5C19 11.3789 18.4428 13.2157 17.399 14.7779C16.3551 16.3402 14.8714 17.5578 13.1355 18.2769C11.3996 18.9959 9.48946 19.184 7.64664 18.8175C5.80382 18.4509 4.11108 17.5461 2.78249 16.2175C1.45389 14.8889 0.549099 13.1962 0.18254 11.3534C-0.18402 9.51054 0.00411194 7.60041 0.723144 5.86451C1.44218 4.12861 2.65982 2.64491 4.22208 1.60104C5.78435 0.557165 7.62108 -2.24059e-08 9.5 0L9.5 1.83346C7.9837 1.83346 6.50145 2.28309 5.2407 3.1255C3.97994 3.96791 2.9973 5.16526 2.41704 6.56614C1.83678 7.96702 1.68495 9.5085 1.98077 10.9957C2.27658 12.4828 3.00675 13.8489 4.07894 14.9211C5.15112 15.9932 6.51717 16.7234 8.00433 17.0192C9.4915 17.315 11.033 17.1632 12.4339 16.583C13.8347 16.0027 15.0321 15.0201 15.8745 13.7593C16.7169 12.4985 17.1665 11.0163 17.1665 9.5H19Z" fill="black"/>
<path id="Ellipse 4" d="M9.5 0C10.7476 1.4877e-08 11.9829 0.245725 13.1355 0.723145C14.2881 1.20056 15.3354 1.90033 16.2175 2.78249C17.0997 3.66464 17.7994 4.71192 18.2769 5.86451C18.7543 7.0171 19 8.25244 19 9.5L17.1665 9.5C17.1665 8.49322 16.9682 7.49629 16.583 6.56614C16.1977 5.63599 15.633 4.79084 14.9211 4.07894C14.2092 3.36703 13.364 2.80232 12.4339 2.41704C11.5037 2.03176 10.5068 1.83346 9.5 1.83346L9.5 0Z" fill="black"/>
</g>
</svg>
