<?xml version="1.0" encoding="UTF-8"?>
<!--Generator: Apple Native CoreSVG 341-->
<!DOCTYPE svg
PUBLIC "-//W3C//DTD SVG 1.1//EN"
       "http://www.w3.org/Graphics/SVG/1.1/DTD/svg11.dtd">
<svg version="1.1" xmlns="http://www.w3.org/2000/svg" xmlns:xlink="http://www.w3.org/1999/xlink" viewBox="0 0 67.8409 51.292">
 <g>
  <rect height="51.292" opacity="0" width="67.8409" x="0" y="0"/>
  <path d="M0 27.3443C0 27.1965 0.0573739 27.054 0.182377 26.9273L8.51367 18.5999C8.63013 18.4834 8.74829 18.4226 8.89771 18.4226C9.19484 18.4226 9.47145 18.6782 9.47145 18.9771C9.47145 19.1231 9.39137 19.2969 9.27321 19.4116L3.83718 24.8079L1.33083 27.3215L3.83718 29.8596L9.27321 35.2542C9.39137 35.3689 9.47145 35.5637 9.47145 35.7097C9.47145 35.9632 9.19484 36.2432 8.89771 36.2432C8.74829 36.2432 8.63013 36.1841 8.51367 36.0676L0.182377 27.7613C0.0573739 27.659 0 27.4937 0 27.3443ZM27.0552 27.3443C27.0552 27.6902 26.7666 27.9578 26.4451 27.9578L3.87968 27.9124L1.62038 27.9231C1.32496 27.9214 1.04322 27.6397 1.04322 27.3443C1.04322 27.0505 1.27955 26.8142 1.59767 26.7898L3.87968 26.7778L26.4451 26.7551C26.7666 26.7551 27.0552 27.021 27.0552 27.3443ZM43.3155 50.4685C43.5318 50.4651 43.7918 50.301 43.9854 50.2034L64.1006 39.2693C65.7354 38.3841 66.2522 37.3836 66.2522 35.6826L66.2522 15.3699C66.2522 14.8418 66.2261 14.5737 66.125 14.3545L43.3155 26.6685ZM41.4693 50.4685L41.4693 26.6685L18.6597 14.3545C18.5813 14.5737 18.5325 14.8418 18.5325 15.3699L18.5325 35.6826C18.5325 37.3836 19.051 38.3841 20.7068 39.2693L40.8237 50.2034C40.9929 50.301 41.2529 50.4651 41.4693 50.4685ZM42.4046 25.0103L53.3743 19.0112L29.9363 6.34814L20.2044 11.7913C19.7354 12.0388 19.523 12.1956 19.3594 12.4028ZM55.3828 17.9226L65.4253 12.4028C65.2617 12.1956 65.0965 12.0388 64.603 11.7458L44.6892 0.705327C43.8584 0.236818 43.1184 0 42.4046 0C41.6663 0 40.9263 0.236818 40.0955 0.705327L32.0742 5.19311Z" fill="white" fill-opacity="0.85"/>
 </g>
</svg>
