<svg width="36" height="36" viewBox="0 0 36 36" fill="none" xmlns="http://www.w3.org/2000/svg">
<path d="M33 20.25V31.5C33 31.8978 32.842 32.2794 32.5607 32.5607C32.2794 32.842 31.8978 33 31.5 33H30C29.6022 33 29.2206 32.842 28.9393 32.5607C28.658 32.2794 28.5 31.8978 28.5 31.5V30H7.5V31.5C7.5 31.8978 7.34196 32.2794 7.06066 32.5607C6.77936 32.842 6.39782 33 6 33H4.5C4.10218 33 3.72064 32.842 3.43934 32.5607C3.15804 32.2794 3 31.8978 3 31.5V20.25L1.1355 19.785C0.81113 19.7037 0.523213 19.5164 0.317483 19.2528C0.111753 18.9892 8.79065e-06 18.6644 0 18.33L0 17.25C0 17.0511 0.0790176 16.8603 0.21967 16.7197C0.360322 16.579 0.551088 16.5 0.75 16.5H3.5625L6.7695 7.947C6.9839 7.37504 7.36778 6.88215 7.86983 6.53423C8.37188 6.18631 8.96818 5.99992 9.579 6H26.421C27.0318 5.99992 27.6281 6.18631 28.1302 6.53423C28.6322 6.88215 29.0161 7.37504 29.2305 7.947L32.4375 16.5H35.25C35.4489 16.5 35.6397 16.579 35.7803 16.7197C35.921 16.8603 36 17.0511 36 17.25V18.33C35.9999 18.6646 35.8879 18.9896 35.6819 19.2532C35.4759 19.5168 35.1876 19.704 34.863 19.785L33 20.25ZM6 22.5V25.5C6 25.8978 6.15804 26.2794 6.43934 26.5607C6.72064 26.842 7.10218 27 7.5 27H12.3675C12.497 26.9998 12.6243 26.9661 12.7369 26.9021C12.8495 26.8381 12.9436 26.746 13.01 26.6348C13.0765 26.5237 13.113 26.3972 13.1161 26.2677C13.1192 26.1382 13.0886 26.0102 13.0275 25.896C11.8185 23.632 9.476 22.5 6 22.5ZM30 22.5C26.524 22.5 24.181 23.632 22.971 25.896C22.9098 26.0103 22.8793 26.1385 22.8824 26.2681C22.8855 26.3977 22.9222 26.5243 22.9888 26.6355C23.0555 26.7467 23.1498 26.8387 23.2626 26.9026C23.3754 26.9665 23.5029 27.0001 23.6325 27H28.5C28.8978 27 29.2794 26.842 29.5607 26.5607C29.842 26.2794 30 25.8978 30 25.5V22.5ZM9 9L6.6585 16.026C6.58343 16.2514 6.56297 16.4914 6.59879 16.7262C6.63461 16.961 6.7257 17.184 6.86455 17.3768C7.0034 17.5695 7.18604 17.7265 7.39744 17.8349C7.60884 17.9432 7.84295 17.9998 8.0805 18H27.9195C28.1571 17.9998 28.3912 17.9432 28.6026 17.8349C28.814 17.7265 28.9966 17.5695 29.1355 17.3768C29.2743 17.184 29.3654 16.961 29.4012 16.7262C29.437 16.4914 29.4166 16.2514 29.3415 16.026L27 9H9Z" fill="white"/>
</svg>
