<svg width="20" height="20" viewBox="0 0 20 20" fill="none" xmlns="http://www.w3.org/2000/svg">
<g id="proicons:box-drag">
<g id="Group">
<path id="Vector" d="M10.0608 14.6109V11.3909M10.0608 11.3909V8.94337C10.0608 8.36087 10.5358 7.88921 11.1208 7.88921C11.7058 7.88921 12.1808 8.36087 12.1808 8.94337M10.0608 11.3909L9.10916 11.6925C8.72354 11.8149 8.38409 12.0513 8.13563 12.3706C7.88716 12.6899 7.74137 13.077 7.7175 13.4809L7.7075 13.6484C7.67095 14.2773 7.76327 14.9071 7.9788 15.499C8.19434 16.091 8.52854 16.6327 8.96091 17.0909C9.39327 17.5491 9.91469 17.9141 10.4932 18.1636C11.0717 18.4131 11.695 18.5417 12.325 18.5417H14.25C15.3882 18.5417 16.4798 18.0896 17.2847 17.2847C18.0895 16.4799 18.5417 15.3883 18.5417 14.25V10.3742C18.5417 9.79171 18.0667 9.31921 17.4817 9.31921C16.8967 9.31921 16.4217 9.79087 16.4217 10.3742M12.1808 11.0209V7.51254C12.1808 6.93087 12.6558 6.45837 13.2408 6.45837C13.8258 6.45837 14.3008 6.93087 14.3008 7.51337V8.94337M14.3008 8.94337V11.0209M14.3008 8.94337C14.3086 8.66728 14.4237 8.40509 14.6217 8.21254C14.8197 8.01999 15.085 7.91227 15.3612 7.91227C15.6375 7.91227 15.9028 8.01999 16.1008 8.21254C16.2988 8.40509 16.4139 8.66728 16.4217 8.94337V10.3742M16.4217 10.3742V11.0209" stroke="#191919" stroke-width="1.5" stroke-linecap="round" stroke-linejoin="round"/>
<path id="Vector_2" d="M5.625 15.2083C4.96196 15.2083 4.32607 14.9449 3.85723 14.4761C3.38839 14.0073 3.125 13.3714 3.125 12.7083V5.625C3.125 4.96196 3.38839 4.32607 3.85723 3.85723C4.32607 3.38839 4.96196 3.125 5.625 3.125H12.7083C13.2993 3.12481 13.8712 3.33396 14.3226 3.71534C14.774 4.09671 15.0757 4.62566 15.1742 5.20833" stroke="#191919" stroke-width="1.5" stroke-linecap="round" stroke-linejoin="round"/>
</g>
</g>
</svg>
