<svg width="56" height="56" viewBox="0 0 56 56" fill="none" xmlns="http://www.w3.org/2000/svg">
<g id="Ultralight-S-c">
<path id="Vector" d="M27.8489 55.35C43.0305 55.35 55.3501 43.0324 55.3501 27.85C55.3501 12.6675 43.0305 0.349976 27.8489 0.349976C12.6696 0.349976 0.350098 12.6675 0.350098 27.85C0.350098 43.0324 12.6696 55.35 27.8489 55.35ZM27.8489 53.6913C13.5501 53.6913 1.97763 42.1493 1.97763 27.85C1.97763 13.5506 13.5501 2.00856 27.8489 2.00856C42.1475 2.00856 53.689 13.5506 53.689 27.85C53.689 42.1493 42.1475 53.6913 27.8489 53.6913Z" stroke="#31A09A" stroke-width="0.7"/>
<path id="Line 1 (Stroke)" d="M53.1798 25.8214V27.2989H2.20776V25.8214H53.1798Z" fill="#31A09A"/>
<path id="Line 1 (Stroke)_2" d="M28.8022 53.1553L27.3248 53.1553L27.3248 2.18091L28.8022 2.18091L28.8022 53.1553Z" fill="#31A09A"/>
<path id="Line 4 (Stroke)" d="M48.1828 12.4803C40.3758 16.6363 34.2346 18.8652 28.0677 18.9271C21.8971 18.9891 15.7525 16.881 7.93677 12.476L8.29892 11.8325C16.0646 16.2093 22.0756 18.2484 28.0598 18.1884C34.0478 18.1283 40.0617 15.9662 47.8351 11.8281L48.1828 12.4803Z" fill="black" stroke="#31A09A"/>
<path id="Line 4 (Stroke)_2" d="M8.11772 43.3507C15.9247 39.1948 22.0659 36.9659 28.2328 36.9039C34.4035 36.842 40.548 38.95 48.3638 43.3551L48.0016 43.9986C40.236 39.6218 34.2249 37.5827 28.2407 37.6427C22.2528 37.7028 16.2388 39.8649 8.46544 44.0029L8.11772 43.3507Z" fill="black" stroke="#31A09A"/>
</g>
</svg>
