<?xml version="1.0" encoding="UTF-8"?>
<!--Generator: Apple Native CoreSVG 341-->
<!DOCTYPE svg
PUBLIC "-//W3C//DTD SVG 1.1//EN"
       "http://www.w3.org/Graphics/SVG/1.1/DTD/svg11.dtd">
<svg version="1.1" xmlns="http://www.w3.org/2000/svg" xmlns:xlink="http://www.w3.org/1999/xlink" viewBox="0 0 44.1131 44.7734">
 <g>
  <rect height="44.7734" opacity="0" width="44.1131" x="0" y="0"/>
  <path d="M42.9601 1.80758C41.1608 0.0553823 37.4367 1.19039 34.5268 4.07589L27.9303 10.695C27.1371 11.4883 26.6698 11.6853 25.5837 11.6574L4.31484 10.6967C3.62441 10.695 3.03335 10.8694 2.63588 11.2668L0.86098 13.0888C0.465228 13.4619 0.589007 14.053 1.2062 14.2517L18.0326 20.5928L10.2917 29.9968L2.49649 27.7705C1.92813 27.6433 1.52725 27.7461 1.05654 28.1958L0.322414 28.9509C-0.0960438 29.3467-0.118749 29.7475 0.322414 30.1887L14.579 44.468C15.0202 44.8865 15.4211 44.8638 15.8395 44.468L16.5737 43.7112C17.0444 43.2405 17.1261 42.8396 17.0199 42.2939L14.7726 34.4761L24.175 26.7578L30.516 43.5615C30.7375 44.2014 31.3303 44.3252 31.7016 43.9067L33.5009 42.1335C33.8984 41.7344 34.0954 41.1433 34.0937 40.4529L33.1347 19.2068C33.1052 18.1206 33.2795 17.6533 34.0954 16.8374L40.6918 10.2409C43.5773 7.35373 44.735 3.6296 42.9601 1.80758Z" fill="white" fill-opacity="0.85"/>
 </g>
</svg>
