<svg width="79" height="79" viewBox="0 0 79 79" fill="none" xmlns="http://www.w3.org/2000/svg">
<g id="Regular-S">
<path id="Vector" d="M39.4043 78.8086C61.1817 78.8086 78.8575 61.1816 78.8575 39.4043C78.8575 17.627 61.1817 0 39.4043 0C17.6758 0 0 17.627 0 39.4043C0 61.1816 17.6758 78.8086 39.4043 78.8086ZM39.4043 71.3867C21.7286 71.3867 7.47066 57.0801 7.47066 39.4043C7.47066 21.7285 21.7286 7.42191 39.4043 7.42191C57.0801 7.42191 71.3868 21.7285 71.3868 39.4043C71.3868 57.0801 57.0801 71.3867 39.4043 71.3867Z" fill="black"/>
<path id="Vector_2" d="M17.7245 54.3457H38.0859C40.5761 54.3457 41.5038 53.3203 41.5038 51.6602C41.5038 45.459 34.912 40.4297 27.9296 40.4297C20.8984 40.4297 14.3066 45.459 14.3066 51.6602C14.3066 53.3203 15.2343 54.3457 17.7245 54.3457ZM27.9296 37.5977C31.3476 37.5977 34.3749 34.4727 34.3749 30.4199C34.3749 26.416 31.3476 23.4863 27.9296 23.4863C24.4628 23.4863 21.4355 26.5137 21.4355 30.4687C21.4355 34.4727 24.4628 37.5977 27.9296 37.5977Z" fill="black"/>
<path id="Vector_3" d="M37.793 57.2266H60.5469C65.9668 57.2266 67.627 54.4922 67.627 51.8066C67.627 45.459 60.4004 37.5977 49.2188 37.5977C37.9883 37.5977 30.6641 45.4102 30.6641 51.8066C30.6641 53.7598 31.5918 57.2266 37.793 57.2266Z" fill="black"/>
<path id="Vector_4" d="M37.7929 54.3457H60.5468C63.7206 54.3457 64.746 53.418 64.746 51.8066C64.746 47.0215 58.789 40.4785 49.2187 40.4785C39.5507 40.4785 33.5449 47.0215 33.5449 51.8066C33.5449 53.418 34.6191 54.3457 37.7929 54.3457ZM49.2187 37.207C53.1249 37.207 56.5917 33.5937 56.5917 28.9551C56.5917 24.3164 53.1249 20.9961 49.2187 20.9961C45.2148 20.9961 41.748 24.4629 41.748 28.9551C41.748 33.5937 45.2148 37.207 49.2187 37.207Z" fill="black"/>
</g>
</svg>
